<svg width="35" height="41" fill="none" xmlns="http://www.w3.org/2000/svg"><path d="M10.973 10.005c1.661-.049 3.038.518 4.423 1.037.616.235 1.232.47 1.872.64.502.137.988.073 1.466-.106.826-.3 1.644-.599 2.47-.907 1.442-.534 2.925-.899 4.464-.802 2.876.178 5.314 1.296 7.17 3.556.323.39.299.43-.106.713-3.006 2.115-4.318 5.023-3.913 8.66.357 3.232 2.066 5.549 4.95 7.015.372.186.445.357.308.737a24.46 24.46 0 0 1-4.108 7.202c-.534.648-1.077 1.28-1.709 1.822-1.417 1.207-3.021 1.475-4.812 1.005-.915-.243-1.766-.656-2.665-.956-1.733-.567-3.443-.462-5.16.09-.899.29-1.75.688-2.665.939-1.782.494-3.289.056-4.617-1.191-2.252-2.106-3.921-4.625-5.169-7.42a25.177 25.177 0 0 1-1.928-6.384C.8 22.91.767 20.18 1.61 17.498c.68-2.195 1.855-4.075 3.678-5.492 1.7-1.32 3.637-2.033 5.686-2.001ZM17.486 8.547c.081-2.568 1.2-4.625 3.103-6.294C21.966 1.046 23.579.349 25.36.017c.276-.048.39-.008.397.3.025 3.046-1.101 5.557-3.426 7.534-1.256 1.069-2.69 1.595-4.334 1.612-.405.008-.575-.106-.519-.519.025-.121.008-.259.008-.397Z" fill="#fff"/></svg>