<svg width="72" height="54" fill="none" xmlns="http://www.w3.org/2000/svg"><path d="M42.434 38.607c2.423-.893 4.209-5.357 0-7.996 0 0-13.144-8.968-20.05-8.968-10.025 0-13.812 7.08-13.812 7.08v19.706H2" stroke="#3D9A73" stroke-width="3" stroke-miterlimit="10" stroke-linecap="round" stroke-linejoin="round"/><path d="M26.005 33.774s9.605 5.784 12.955 5.784c3.35 0 23.118-9.822 23.118-9.822 6.142-3.384 10.833 3.055 5.36 6.984 0 0-15.746 7.75-27.026 12.224C35.833 50.69 33.265 52 30.138 52c-2.792 0-4.133-.873-6.925-2.074-2.376-1.002-4.908-2.212-7.052-3.284" stroke="#3D9A73" stroke-width="3" stroke-miterlimit="10" stroke-linecap="round" stroke-linejoin="round"/><path d="M49.321 28.785s1.925-.58 4.495-1.505c2.57-.926 5.888.514 5.246 3.291" stroke="#3D9A73" stroke-width="3" stroke-miterlimit="10" stroke-linecap="round" stroke-linejoin="round"/><path d="M2 27h7.143" stroke="#3D9A73" stroke-width="3" stroke-linecap="round" stroke-linejoin="round"/><circle cx="43.964" cy="11.821" r="9.821" stroke="#3D9A73" stroke-width="3"/><path d="M48.429 10.929a3.571 3.571 0 0 0-3.572-3.572" stroke="#3D9A73" stroke-width="3" stroke-linecap="round" stroke-linejoin="round"/></svg>