<svg width="48" height="54" fill="none" xmlns="http://www.w3.org/2000/svg"><path d="M8.143 15.333V8a6 6 0 0 1 6-6H33.97a6 6 0 0 1 4.46 1.986l5.672 6.303a6 6 0 0 1 1.54 4.013V46a6 6 0 0 1-6 6h-26.25" stroke="#3D9A73" stroke-width="3" stroke-linecap="round"/><path d="M33.227 3.786V14.5h10.715" stroke="#3D9A73" stroke-width="3" stroke-linecap="round" stroke-linejoin="round"/><circle cx="20.728" cy="28.786" r="10.714" stroke="#3D9A73" stroke-width="3"/><path d="M15.371 30.571c0-3.945 2.399-7.143 5.357-7.143M10.222 33.974l-6.945 7.2a3.096 3.096 0 0 0 .039 4.339v0a3.096 3.096 0 0 0 4.378 0l7.033-7.033" stroke="#3D9A73" stroke-width="3" stroke-linecap="round"/></svg>