<svg width="50" height="54" fill="none" xmlns="http://www.w3.org/2000/svg"><path d="M13.538 12.577V10a8 8 0 0 1 8-8h18.616a8 8 0 0 1 8 8v34a8 8 0 0 1-8 8h-10.27" stroke="#3D9A73" stroke-width="3" stroke-linecap="round" stroke-linejoin="round"/><path d="M19.077 19.308H8c-3.314 0-6 2.689-6 6.003v20.686A6.002 6.002 0 0 0 8 52h11.077a6 6 0 0 0 6-6V25.308a6 6 0 0 0-6-6ZM27 9.692h7.692" stroke="#3D9A73" stroke-width="3" stroke-linecap="round" stroke-linejoin="round"/><path d="M16.424 44.308a2.885 2.885 0 1 1-5.77 0 2.885 2.885 0 0 1 5.77 0Z" fill="#3D9A73"/></svg>