<svg width="54" height="68" fill="none" xmlns="http://www.w3.org/2000/svg"><path d="M26.118 55.007c1.387 0 1.152-1.039.53-1.276-7.498-2.872-9.13-15.528-7.006-21.164-6.263 5.743-1.93 16.271 3.503 21.163-4.67-2.127-6.263-5.849-6.9-9.04-.317-1.587-1.028-1.265-1.274-.744-.956 2.02-.07 4.822.425 5.637 3.295 5.424 7.325 5.424 10.722 5.424Z" fill="#3D9A73"/><path d="M42.255 30.546v19.888c0 .85-.425 1.382-1.274 1.382h-3.398c-.849 0-1.273-.638-1.273-1.489v-9.359H25.052c.142 3.637.818 7.42 2.446 10.53.319.608 0 1.18-.743.744-3.079-1.808-6.157-5.91-6.157-14.252 0-8.508 4.458-10.21 6.263-10.21-.605 1.112-1.47 4.643-1.748 8.934H36.31v-6.912c0-.426-.319-1.17-1.168-1.064.354-.532 1.484-1.595 3.185-1.595 2.19 0 3.928 1.382 3.928 3.403Z" fill="#3D9A73"/><path d="M40.788 22.831V21.43a8 8 0 0 0-8-8H10a8 8 0 0 0-8 8V58a8 8 0 0 0 8 8h22.788a8 8 0 0 0 8-8v-1.402M52.196 13.428C52.196 7.117 47.09 2 40.788 2M45.351 13.429a4.567 4.567 0 0 0-4.563-4.572" stroke="#3D9A73" stroke-width="3" stroke-linecap="round" stroke-linejoin="round"/></svg>