<svg width="36" height="36" fill="none" xmlns="http://www.w3.org/2000/svg"><circle cx="18" cy="18" r="18" fill="#3D9A73"/><path d="m14.052 11.87-1.261-1.292a2.153 2.153 0 0 0-3.082 0 2.07 2.07 0 0 0-.58 1.738c1.699 11.652 9.995 14.615 14.75 14.683.561.008 1.088-.244 1.481-.647.898-.92.86-2.4-.086-3.27l-1.496-1.38a2.348 2.348 0 0 0-2.778-.3 2.348 2.348 0 0 1-2.93-.455l-2.975-3.3a2.7 2.7 0 0 1-.485-2.85 2.7 2.7 0 0 0-.558-2.927Z" fill="#fff"/><path d="M27 16.92A7.92 7.92 0 0 0 19.08 9M22.68 16.2a2.88 2.88 0 0 0-2.88-2.88" stroke="#fff" stroke-width="2" stroke-linecap="round" stroke-linejoin="round"/></svg>