<svg width="54" height="54" fill="none" xmlns="http://www.w3.org/2000/svg"><path d="M52 11.821V8a6 6 0 0 0-6-6h-3.821M52 42.179V46a6 6 0 0 1-6 6h-3.821M11.82 2H8a6 6 0 0 0-6 6v3.821M2 42.18V46a6 6 0 0 0 6 6h3.821" stroke="#3D9A73" stroke-width="3" stroke-linecap="round" stroke-linejoin="round"/><rect x="9.143" y="9.143" width="14.286" height="14.286" rx="2" stroke="#3D9A73" stroke-width="3" stroke-linecap="round" stroke-linejoin="round"/><rect x="30.571" y="9.143" width="14.286" height="14.286" rx="2" stroke="#3D9A73" stroke-width="3" stroke-linecap="round" stroke-linejoin="round"/><path d="M37.714 32.357V39.5M44.857 35.928v10.715M28.786 30.572h5.357M32.357 44.857h12.5M37.714 14.5v3.571M16.286 14.5v3.571M16.286 35.928V39.5" stroke="#3D9A73" stroke-width="3" stroke-linejoin="round"/><rect x="9.143" y="30.572" width="14.286" height="14.286" rx="2" stroke="#3D9A73" stroke-width="3" stroke-linecap="round" stroke-linejoin="round"/></svg>