<svg width="102" height="102" viewBox="0 0 102 102" fill="none" xmlns="http://www.w3.org/2000/svg">
<rect width="102" height="102" rx="20" fill="#DF212F"/>
<path fill-rule="evenodd" clip-rule="evenodd" d="M29.2409 64.6113C29.2409 64.6113 25.0448 51.7911 21.4844 43.8398C21.4844 43.8398 31.8689 32.7169 49.5012 32.0915V64.6113H39.7578C37.991 64.6113 37.35 64.0719 36.4311 61.8362L29.0443 43.8654C28.2954 44.3553 27.5621 44.8793 26.8464 45.4398C28.7276 49.9579 32.4436 59.4366 34.238 64.6113H29.2409V64.6113ZM45.5746 24.5184L51.0107 18.7893L56.4467 24.5184L51.0107 30.2475L45.5746 24.5184ZM29.9026 67.2917H72.1188V72.4735H29.9026V67.2917ZM72.7805 64.6113C72.7805 64.6113 76.9766 51.7911 80.537 43.8398C80.537 43.8398 70.1525 32.7169 52.5202 32.0915V64.6113H62.2636C64.0303 64.6113 64.6713 64.0719 65.5903 61.8362L72.977 43.8654C73.7259 44.3553 74.4593 44.8793 75.175 45.4398C73.2937 49.9579 69.5778 59.4366 67.7833 64.6113H72.7805V64.6113ZM59.5563 60.5017H57.3358V38.1673C61.2084 38.7772 64.9825 39.8019 68.5147 41.4135L61.6089 58.883C61.1364 60.0648 60.8885 60.5017 59.5563 60.5017ZM42.4651 60.5017H44.6856V38.1673C40.813 38.7772 37.0389 39.8019 33.5067 41.4135L40.4125 58.883C40.885 60.0648 41.1328 60.5017 42.4651 60.5017Z" fill="#FEC02E"/>
</svg>
