<svg width="50" height="94" fill="none" xmlns="http://www.w3.org/2000/svg"><path fill-rule="evenodd" clip-rule="evenodd" d="M21.263 70.8V15.557l-.385.166-.36.16-.982.467a104.088 104.088 0 0 0-.634.324V70.8h2.361Zm-3.935 0V17.556l-.326.198-.281.175-1.277.846-.216.151-.26.187V70.8h2.36Zm-3.942-50.469-.217.18-1.66 1.477-.285.276-.191.187V70.8h2.754V20.008l-.401.323Zm-3.14 50.47V23.254l-.23.245-.297.324a35.278 35.278 0 0 0-3.96 5.29c-.079.129-.157.257-.234.386V70.8H10.246ZM4.315 31.687l-.185.366a36.568 36.568 0 0 0-3.193 9.39C.202 45.19.06 48.924.026 52.714c-.035 3.775-.01 7.55-.01 11.325 0 1.887-.016 3.23-.016 5.118 0 .83.725 1.614 1.45 1.614.225.035 3.11.03 3.288.03V30.883l-.423.804ZM43.689 29.5v41.3c.95 0 3.406.01 3.738-.005.936 0 1.73-.665 1.755-1.59-.008-.167.016-3.958.016-4.953 0-3.977.031-7.954-.014-11.93-.045-3.998-.231-7.92-1.112-11.852A37.58 37.58 0 0 0 43.69 29.5Zm-3.934 41.3h3.147V28.242l-.285-.43-.214-.314a35.462 35.462 0 0 0-2.392-3.09l-.256-.294V70.8Zm-1.18 0V22.846l-.316-.317-.269-.265a33.537 33.537 0 0 0-2.17-1.939V70.8h2.754Zm-4.329 0V19.113l-.228-.163-.215-.152a32.344 32.344 0 0 0-1.296-.86l-.268-.167-.353-.215V70.8h2.36ZM23.623 7.027V0h1.967v7.03a3.42 3.42 0 0 1 2.423 3.263 3.419 3.419 0 0 1-2.423 3.263V70.8H23.623V13.557a3.419 3.419 0 0 1-2.428-3.264 3.419 3.419 0 0 1 2.428-3.266Zm5.537 8.91v54.867h-.987V15.442c.334.163.663.328.987.495ZM.625 72.964h47.96v.908H.624v-.908ZM.625 92.716h47.96v.908H.624v-.908Z" fill="#3D9A73"/><path d="M48.58 82.34h-2.805v-.312c.08-.005.194-.015.343-.027.15-.01.255-.028.316-.052a.442.442 0 0 0 .211-.156.495.495 0 0 0 .065-.274v-4.51a.591.591 0 0 0-.048-.256c-.032-.069-.108-.126-.228-.174a2.539 2.539 0 0 0-.33-.098 2.284 2.284 0 0 0-.329-.054v-.312h2.805v.312c-.091.003-.2.013-.325.033a2.21 2.21 0 0 0-.33.072c-.11.036-.185.092-.222.17a.59.59 0 0 0-.058.264v4.505c0 .096.021.182.063.257a.434.434 0 0 0 .218.178c.061.024.161.049.3.076.138.028.257.043.354.046v.312ZM45.434 80.49l-.131 1.85h-4.865v-.312c.07-.005.172-.016.305-.03a.983.983 0 0 0 .279-.058.374.374 0 0 0 .19-.166.576.576 0 0 0 .06-.28v-4.458a.636.636 0 0 0-.051-.263.378.378 0 0 0-.2-.185 1.632 1.632 0 0 0-.283-.103 1.66 1.66 0 0 0-.3-.058v-.312h2.627v.312a1.914 1.914 0 0 0-.317.043c-.13.027-.225.05-.283.07a.325.325 0 0 0-.205.18.693.693 0 0 0-.054.273v4.18c0 .194.009.343.028.45.02.106.063.188.134.248a.595.595 0 0 0 .3.102c.134.016.32.024.56.024.108 0 .22-.001.337-.008.117-.005.228-.017.334-.035.102-.018.197-.042.283-.072a.46.46 0 0 0 .19-.117c.12-.135.26-.338.42-.611.159-.274.27-.496.33-.665h.312ZM36.845 76.852c.274.286.49.632.644 1.038.156.404.232.853.232 1.344 0 .495-.078.944-.237 1.347a3.002 3.002 0 0 1-.657 1.031 2.908 2.908 0 0 1-2.098.878c-.433 0-.832-.082-1.2-.244a2.763 2.763 0 0 1-.944-.678 3.068 3.068 0 0 1-.622-1.034 3.72 3.72 0 0 1-.226-1.3c0-.505.08-.956.238-1.353.158-.397.376-.74.653-1.029.276-.286.595-.506.958-.659a2.95 2.95 0 0 1 1.143-.227c.413 0 .803.078 1.168.232.365.156.681.373.948.654Zm-.655 4.413c.164-.266.284-.567.358-.903.075-.337.111-.713.111-1.128 0-.426-.04-.819-.124-1.175a2.896 2.896 0 0 0-.367-.913 1.752 1.752 0 0 0-.605-.581 1.644 1.644 0 0 0-.834-.208c-.35 0-.648.08-.894.24-.245.16-.446.377-.602.646a3.127 3.127 0 0 0-.326.903 5.327 5.327 0 0 0-.108 1.088c0 .421.039.802.115 1.14.075.34.195.641.36.904.157.258.356.459.596.604.239.145.527.217.859.217a1.652 1.652 0 0 0 1.461-.834ZM31.625 76.427a1.055 1.055 0 0 0-.238.058.926.926 0 0 0-.232.108c-.114.07-.192.124-.232.163-.04.038-.12.136-.237.298-.229.322-.438.647-.632.978-.193.33-.434.75-.724 1.26a2.31 2.31 0 0 0-.214.451 1.745 1.745 0 0 0-.053.496v1.19c0 .104.021.195.063.273a.45.45 0 0 0 .217.186c.061.024.17.052.33.085.157.034.284.052.381.055v.312h-2.913v-.312c.082-.005.205-.016.37-.032.163-.017.276-.038.34-.063a.412.412 0 0 0 .218-.182.606.606 0 0 0 .06-.28v-1.514a.78.78 0 0 0-.085-.255 10.404 10.404 0 0 0-.206-.415 78.164 78.164 0 0 0-1.14-2.114 2.45 2.45 0 0 0-.257-.378 1.314 1.314 0 0 0-.256-.225.865.865 0 0 0-.253-.1 1.592 1.592 0 0 0-.265-.043v-.312h2.655v.312c-.3.006-.51.025-.632.061-.123.035-.184.084-.184.148 0 .018.009.05.025.093.018.044.044.099.075.166.038.077.084.163.136.262a47.92 47.92 0 0 0 .57 1.062c.143.258.33.595.563 1.01.458-.739.808-1.317 1.05-1.73.24-.413.361-.662.361-.744a.2.2 0 0 0-.074-.162.525.525 0 0 0-.198-.096 1.381 1.381 0 0 0-.276-.046 10.02 10.02 0 0 1-.277-.024v-.312h2.164v.312ZM21.759 82.34h-1.746a18.82 18.82 0 0 0-1.12-1.551 26.572 26.572 0 0 0-1.292-1.493h-.114v2.166c0 .098.018.183.054.26a.406.406 0 0 0 .2.184 1.7 1.7 0 0 0 .26.075c.128.028.234.044.318.047v.312h-2.583v-.312c.068-.005.165-.015.294-.027a.899.899 0 0 0 .272-.052.372.372 0 0 0 .19-.169.553.553 0 0 0 .06-.27v-4.492a.607.607 0 0 0-.05-.259.397.397 0 0 0-.2-.18 1.6 1.6 0 0 0-.281-.1 1.458 1.458 0 0 0-.285-.052v-.312h2.583v.312a2.2 2.2 0 0 0-.307.039 2.049 2.049 0 0 0-.27.066.324.324 0 0 0-.203.175.692.692 0 0 0-.052.268v2.15h.087c.263-.223.522-.455.777-.696.254-.242.485-.483.693-.722.23-.265.4-.48.506-.638.107-.159.16-.3.16-.424 0-.043-.027-.08-.08-.107a.935.935 0 0 0-.188-.068 1.468 1.468 0 0 0-.218-.033l-.159-.01v-.312h2.334v.312a7.022 7.022 0 0 1-.157.013.795.795 0 0 0-.123.017c-.041.009-.094.02-.158.031-.102.023-.208.06-.318.11a.839.839 0 0 0-.27.192c-.302.342-.616.697-.943 1.062-.328.366-.652.7-.974 1 .444.504.813.936 1.103 1.299l.928 1.162c.126.158.252.284.378.38.126.094.234.166.323.213.077.037.172.067.286.088.114.02.21.031.285.034v.312ZM15.495 82.34h-2.592v-.312c.228-.015.417-.043.568-.088.151-.043.226-.097.226-.162a.616.616 0 0 0-.036-.197l-.517-1.395h-2.18c-.082.204-.148.382-.2.535-.051.151-.098.292-.138.42-.038.127-.064.23-.08.308a1.22 1.22 0 0 0-.02.193c0 .117.09.208.275.273.184.064.392.101.623.113v.312H9.082v-.312c.076-.006.17-.022.285-.05a.932.932 0 0 0 .281-.111c.117-.08.207-.162.271-.249.064-.087.127-.205.189-.358.313-.78.659-1.657 1.036-2.632.377-.974.713-1.84 1.01-2.601h.35l2.075 5.37c.043.113.093.206.148.276.057.07.133.138.234.206a.92.92 0 0 0 .262.103c.11.028.199.043.272.046v.312Zm-2.51-2.544-.943-2.414-.925 2.414h1.869ZM8.977 77.65c0 .325-.064.612-.191.862-.128.25-.303.457-.529.62a2.254 2.254 0 0 1-.732.361 3.104 3.104 0 0 1-.846.114H5.98v1.887c0 .102.016.192.05.27.034.076.103.136.209.176.052.021.145.04.278.057.134.018.255.028.366.031v.312H4.213v-.312c.07-.005.172-.016.305-.03a.984.984 0 0 0 .279-.058.374.374 0 0 0 .19-.166.576.576 0 0 0 .06-.28v-4.492a.8.8 0 0 0-.045-.277c-.029-.083-.098-.144-.205-.184a1.806 1.806 0 0 0-.332-.081 3.974 3.974 0 0 0-.282-.033v-.312h2.842c.58 0 1.05.14 1.41.42.361.278.542.65.542 1.115Zm-1.334 1.062c.1-.14.165-.286.198-.436.031-.151.048-.286.048-.406 0-.167-.02-.337-.059-.509a1.192 1.192 0 0 0-.205-.452 1.02 1.02 0 0 0-.403-.32 1.496 1.496 0 0 0-.623-.114h-.618v2.75h.448c.316 0 .572-.05.77-.146.197-.1.345-.22.444-.367ZM3.433 82.34H.628v-.312c.08-.005.193-.015.343-.027.15-.01.254-.028.316-.052a.442.442 0 0 0 .211-.156.496.496 0 0 0 .064-.274v-4.51a.591.591 0 0 0-.048-.256c-.031-.069-.107-.126-.227-.174a2.548 2.548 0 0 0-.66-.152v-.312h2.806v.312c-.092.003-.2.013-.325.033a2.21 2.21 0 0 0-.33.072c-.11.036-.185.092-.223.17a.592.592 0 0 0-.057.264v4.505c0 .096.021.182.063.257a.432.432 0 0 0 .217.178c.062.024.162.049.301.076.138.028.256.043.354.046v.312Z" fill="#3D9A73"/><path fill-rule="evenodd" clip-rule="evenodd" d="M8.2 90.858H5.483v-.31c.097-.002.224-.013.38-.03a.98.98 0 0 0 .316-.073.55.55 0 0 0 .197-.189.506.506 0 0 0 .063-.265v-4.458h-.065l-2.086 5.228h-.214l-1.987-5.336h-.056v3.659c0 .354.022.624.067.808.045.185.113.317.205.397.063.06.195.118.394.172.197.056.327.085.388.088v.31H.615v-.31c.13-.012.266-.033.407-.065a.782.782 0 0 0 .33-.143.63.63 0 0 0 .207-.37c.037-.168.056-.448.056-.839v-3.134c0-.182-.022-.33-.065-.446a.688.688 0 0 0-.186-.28.845.845 0 0 0-.328-.173 1.623 1.623 0 0 0-.385-.065v-.31h2.088l1.744 4.608 1.499-3.853c.056-.142.101-.291.141-.445.039-.155.06-.258.062-.31h2.006v.31a2.302 2.302 0 0 0-.308.039 2.198 2.198 0 0 0-.273.065.318.318 0 0 0-.199.172.68.68 0 0 0-.052.264v4.417c0 .102.018.186.052.255.034.07.1.13.2.182.05.029.142.056.275.08.131.024.236.038.314.04v.31Zm8.448-5.41c.271.283.482.624.635 1.023.152.4.229.843.229 1.326 0 .489-.078.931-.233 1.33a2.947 2.947 0 0 1-.65 1.016 2.776 2.776 0 0 1-.931.64c-.356.15-.732.226-1.133.226-.426 0-.82-.08-1.182-.24a2.732 2.732 0 0 1-.932-.669 3.043 3.043 0 0 1-.611-1.02 3.65 3.65 0 0 1-.223-1.282c0-.5.078-.945.234-1.335.156-.391.37-.73.644-1.014.27-.283.586-.5.944-.65.359-.15.733-.225 1.126-.225.405 0 .789.077 1.149.229.36.153.671.369.934.646Zm-.643 4.357c.162-.264.278-.56.352-.894a5.15 5.15 0 0 0 .11-1.114c0-.421-.04-.808-.123-1.16a2.864 2.864 0 0 0-.36-.902 1.623 1.623 0 0 0-1.42-.78c-.346 0-.64.08-.882.239-.241.158-.439.37-.592.637-.143.254-.251.552-.322.893-.07.34-.106.699-.106 1.073 0 .416.037.792.112 1.127.075.337.193.633.356.894.154.254.35.453.587.596.237.143.519.214.848.214a1.627 1.627 0 0 0 1.44-.823Zm9.293-1.8c.179.121.328.28.446.475.118.195.177.432.177.711 0 .287-.062.533-.186.744-.124.21-.285.382-.484.518a2.221 2.221 0 0 1-.655.302c-.243.07-.494.103-.754.103h-2.904v-.31c.069-.005.17-.017.302-.037.131-.019.226-.04.283-.066a.392.392 0 0 0 .19-.162.543.543 0 0 0 .057-.261v-4.405a.616.616 0 0 0-.05-.258.38.38 0 0 0-.2-.181 1.22 1.22 0 0 0-.293-.1 2.422 2.422 0 0 0-.271-.044v-.31h2.839c.218 0 .43.023.63.066.2.042.392.119.574.228.17.102.311.24.42.412.11.174.165.383.165.632 0 .216-.038.41-.116.577-.078.17-.188.315-.33.436a1.863 1.863 0 0 1-.455.292c-.173.08-.357.141-.556.184v.04c.175.019.372.063.59.131.217.068.412.163.581.283Zm-1.043-.927c.106-.124.18-.26.223-.408.041-.147.062-.323.062-.525 0-.338-.092-.603-.276-.795-.184-.193-.476-.29-.873-.29-.093 0-.208.004-.348.008-.14.005-.258.008-.353.01v2.364h.549c.236 0 .44-.031.607-.092a.955.955 0 0 0 .41-.272Zm.595 1.959c0-.362-.121-.66-.365-.891-.243-.234-.591-.35-1.044-.35-.183 0-.34.003-.466.007l-.285.01v2.153c0 .181.074.317.22.41.147.091.352.137.614.137.429 0 .756-.125.985-.375.227-.249.34-.616.34-1.102Zm7.228 1.821h-2.761v-.31l.338-.026c.146-.01.25-.028.31-.052a.418.418 0 0 0 .208-.153.485.485 0 0 0 .065-.27v-4.439c0-.1-.017-.184-.048-.252-.032-.068-.106-.124-.225-.171a2.252 2.252 0 0 0-.326-.096 2.093 2.093 0 0 0-.322-.055v-.31h2.761v.31c-.09.003-.196.014-.32.033-.123.019-.231.043-.323.07-.11.036-.184.092-.221.169a.606.606 0 0 0-.056.26V90a.5.5 0 0 0 .062.252.43.43 0 0 0 .215.176c.06.023.158.048.295.075.137.028.254.043.348.046v.31Zm8.352-1.823-.13 1.823h-4.782v-.31c.069-.005.168-.016.298-.03a.979.979 0 0 0 .271-.057.362.362 0 0 0 .188-.163.582.582 0 0 0 .057-.276v-4.387a.648.648 0 0 0-.049-.26.39.39 0 0 0-.196-.181 1.447 1.447 0 0 0-.276-.1 1.542 1.542 0 0 0-.293-.06v-.31h2.584v.31a2.105 2.105 0 0 0-.314.043 2.456 2.456 0 0 0-.28.07.326.326 0 0 0-.2.176.656.656 0 0 0-.056.269v4.117c0 .19.01.338.028.444.02.105.062.186.132.244a.604.604 0 0 0 .295.101 6.72 6.72 0 0 0 .882.015c.115-.006.224-.018.327-.034.102-.018.194-.041.28-.072a.437.437 0 0 0 .187-.114c.118-.133.255-.333.411-.603.157-.27.266-.489.326-.655h.31Zm8.235.018-.117 1.805h-5.087v-.31c.087-.005.202-.017.346-.037.145-.019.239-.038.282-.057a.394.394 0 0 0 .193-.17.55.55 0 0 0 .055-.262v-4.405a.646.646 0 0 0-.047-.252c-.033-.074-.1-.133-.201-.18a1.55 1.55 0 0 0-.314-.099 2.548 2.548 0 0 0-.314-.052v-.31h4.744v1.479h-.328c-.058-.218-.181-.45-.373-.697-.19-.244-.372-.379-.544-.402-.09-.01-.197-.02-.32-.025a8.81 8.81 0 0 0-.422-.01h-.96v2.435h.688c.22 0 .382-.02.484-.062a.682.682 0 0 0 .268-.21c.064-.084.117-.194.161-.335.044-.138.074-.27.089-.393h.327v2.398h-.327a1.949 1.949 0 0 0-.093-.438 1.122 1.122 0 0 0-.157-.335.621.621 0 0 0-.303-.22 1.609 1.609 0 0 0-.449-.051h-.689v1.84c0 .184.014.328.039.435a.407.407 0 0 0 .152.241c.073.055.176.09.305.107.13.016.314.023.553.023h.375c.155 0 .286-.006.392-.018.11-.011.223-.032.34-.062.116-.03.198-.072.247-.123.133-.137.272-.347.416-.629a4.11 4.11 0 0 0 .279-.62h.31Z" fill="#3D9A73"/><path d="M39.814 76c-.141.08-.253.148-.34.205a1.53 1.53 0 0 0-.264.229.977.977 0 0 0-.193.276 1.332 1.332 0 0 0-.094.378h.212c.184 0 .326.046.43.137.105.089.158.222.158.396a.53.53 0 0 1-.14.35.486.486 0 0 1-.384.162c-.256 0-.438-.083-.546-.25-.111-.168-.166-.387-.166-.658 0-.193.043-.369.126-.526.083-.159.185-.3.304-.424.123-.127.253-.235.391-.324.136-.088.252-.16.345-.217l.16.265Z" fill="#3D9A73"/></svg>