<svg width="40" height="40" fill="none" xmlns="http://www.w3.org/2000/svg"><rect width="40" height="40" rx="10" fill="#0A66C2"/><path fill="#fff" d="M7 8h27v26H7z"/><path d="M33.712 5H7.288A2.288 2.288 0 0 0 5 7.288v26.424A2.288 2.288 0 0 0 7.288 36h26.424A2.288 2.288 0 0 0 36 33.712V7.288A2.288 2.288 0 0 0 33.712 5ZM14.24 31.408H9.579V16.603h4.66v14.805Zm-2.334-16.856a2.675 2.675 0 1 1 2.691-2.674 2.638 2.638 0 0 1-2.69 2.674ZM31.42 31.42H26.76v-8.088c0-2.385-1.014-3.121-2.323-3.121-1.382 0-2.738 1.041-2.738 3.181v8.028h-4.66V16.614h4.481v2.052h.06c.45-.91 2.027-2.467 4.431-2.467 2.6 0 5.41 1.543 5.41 6.064l-.002 9.158Z" fill="#0A66C2"/></svg>