<svg width="40" height="40" fill="none" xmlns="http://www.w3.org/2000/svg"><rect width="40" height="40" rx="10" fill="#000"/><path d="M24.064 17.22a7.802 7.802 0 0 0 4.563 1.466V15.4c-.322 0-.643-.034-.958-.101v2.587a7.803 7.803 0 0 1-4.563-1.466v6.706c0 3.355-2.71 6.075-6.053 6.075a6.009 6.009 0 0 1-3.37-1.028 6.024 6.024 0 0 0 4.328 1.828c3.343 0 6.053-2.72 6.053-6.075V17.22Zm1.182-3.315a4.588 4.588 0 0 1-1.182-2.681V10.8h-.908a4.601 4.601 0 0 0 2.09 3.104Zm-9.448 11.694a2.774 2.774 0 0 1-.565-1.682 2.774 2.774 0 0 1 3.609-2.648v-3.36a6.077 6.077 0 0 0-.958-.055v2.615a2.773 2.773 0 0 0-3.609 2.648 2.78 2.78 0 0 0 1.523 2.482Z" fill="#FF004F"/><path d="M23.105 16.42a7.803 7.803 0 0 0 4.564 1.466v-2.587a4.577 4.577 0 0 1-2.423-1.394 4.602 4.602 0 0 1-2.09-3.104H20.77v13.125A2.774 2.774 0 0 1 18 26.696c-.9 0-1.698-.43-2.204-1.097a2.78 2.78 0 0 1-1.523-2.482 2.774 2.774 0 0 1 3.609-2.648v-2.615c-3.284.068-5.925 2.76-5.925 6.072 0 1.654.658 3.152 1.725 4.247a6.01 6.01 0 0 0 3.37 1.028c3.342 0 6.052-2.72 6.052-6.075V16.42Z" fill="#fff"/><path d="M27.669 15.298v-.7a4.55 4.55 0 0 1-2.423-.694 4.573 4.573 0 0 0 2.423 1.394ZM23.156 10.8a4.705 4.705 0 0 1-.05-.377V10h-3.294v13.126a2.774 2.774 0 0 1-2.769 2.769 2.75 2.75 0 0 1-1.246-.297 2.762 2.762 0 0 0 2.204 1.097 2.774 2.774 0 0 0 2.77-2.77V10.8h2.385Zm-5.273 7.053v-.745a6.086 6.086 0 0 0-.83-.056c-3.343 0-6.053 2.72-6.053 6.074a6.074 6.074 0 0 0 2.684 5.046 6.064 6.064 0 0 1-1.726-4.247c0-3.311 2.641-6.004 5.925-6.072Z" fill="#00F2EA"/></svg>