<svg width="144" height="144" viewBox="0 0 144 144" fill="none" xmlns="http://www.w3.org/2000/svg">
<circle cx="72" cy="72" r="72" fill="url(#paint0_radial_641_15434)"/>
<path fill-rule="evenodd" clip-rule="evenodd" d="M66.8791 0.179685C29.5044 2.80602 0 33.9576 0 72.0004C0 73.8896 0.0727593 75.7617 0.215628 77.6143C0.604279 77.619 0.914412 77.3905 0.996475 76.734C1.24561 74.7409 1.49475 72.7478 1.99302 73.7443C2.19179 74.1419 2.5888 75.4513 3.0417 76.9451C3.7241 79.1958 4.53339 81.8651 4.98263 82.4641C5.27525 82.8542 5.49149 83.2444 5.69115 83.6046C6.00149 84.1645 6.27179 84.6522 6.72658 84.9554C6.88076 85.0582 7.04554 85.1504 7.21874 85.2473C7.88513 85.6201 8.6761 86.0626 9.46706 87.4468C10.4636 89.1907 15.6954 93.1769 17.6885 93.9243C19.6816 94.6717 20.6781 96.6648 20.1799 100.402C19.6816 104.139 20.429 105.883 23.1695 109.371C25.3619 112.161 34.8788 123.156 39.3633 128.305C42.5335 131.585 48.5028 137.347 54.0886 141.755C56.8391 142.459 59.653 143.005 62.5201 143.382C55.1631 140.818 51.7003 136.032 50.8235 133.537C50.9065 133.205 51.0228 131.444 50.8235 127.059C50.6146 122.465 52.3314 121.722 53.6259 121.161C53.8757 121.053 54.1099 120.952 54.3114 120.831C55.3079 120.233 55.8892 118.755 56.0553 118.09C56.4705 116.014 57.3508 111.364 57.5501 109.371C57.7278 107.594 57.5253 107.464 57.2138 107.265C57.0885 107.185 56.9456 107.094 56.8027 106.879C56.3044 106.132 51.5709 104.388 48.5813 103.641C46.1896 103.043 44.429 101.398 43.8477 100.651C40.6252 96.4369 32.963 92.2228 27.9782 89.4811L27.903 89.4398C23.122 86.8103 20.4053 88.7683 18.6526 90.0315L18.6451 90.0369C18.5738 90.0883 18.5041 90.1386 18.4359 90.1872C17.4371 90.9007 17.4189 90.8786 17.2581 90.6827C17.1382 90.5366 16.9388 90.2937 16.1937 90.1872C14.5682 89.955 14.2414 89.2899 13.801 88.3936L13.8002 88.3921C13.7684 88.3273 13.7359 88.2613 13.7024 88.1942C13.443 87.6755 13.3186 87.1567 13.1185 86.3218C12.9341 85.5527 12.6854 84.5153 12.2075 82.9623C11.2437 79.83 10.513 79.7271 8.88834 79.4983L8.71966 79.4744C7.3245 79.2751 6.80958 78.2288 6.72652 77.7305C5.72998 74.7409 7.22479 72.0004 9.21787 70.0073C10.8123 68.4129 11.8753 68.8447 12.2075 69.2599C12.1245 69.509 12.3072 70.4059 13.7024 72.0004C15.4463 73.9935 15.9446 72.2495 16.1937 70.0073C16.4428 67.7651 16.692 66.2703 18.4359 64.0281C18.6905 63.7007 18.9239 63.4052 19.1407 63.1307L19.141 63.1304C20.4088 61.525 21.1092 60.6382 22.1729 58.298C23.4186 55.5575 29.647 50.3257 32.1383 48.5817C33.3099 47.7616 34.4814 47.6577 35.7566 47.5447C37.1931 47.4173 38.7612 47.2782 40.6089 46.0904C43.3992 44.2966 43.1003 40.8585 42.602 39.3637C42.1868 38.6163 41.2068 36.2745 40.6089 32.8862C39.8615 28.6509 41.8546 26.4087 44.3459 24.9139C46.339 23.7181 47.3356 21.2599 47.5847 20.1803C48.166 17.8551 49.4781 12.6565 50.076 10.4641C50.6176 8.47817 52.9908 7.53888 54.6358 6.88777C55.2609 6.64037 55.7809 6.43457 56.0553 6.22878C56.8526 5.63086 57.5501 5.97964 57.7992 6.22878C57.3009 6.97618 57.5501 7.97272 58.5466 7.97272C59.3439 7.97272 59.0449 9.13535 58.7958 9.71667C58.5466 10.1319 57.9487 11.4108 57.5501 13.2046C57.0518 15.4468 56.0552 16.9416 53.5639 19.1838C51.0725 21.426 51.3217 27.1561 52.0691 29.8966C52.667 32.089 54.3113 30.8101 55.0587 29.8966C57.8356 24.3428 65.7405 20.4374 69.0378 18.8083L69.038 18.8082C69.5863 18.5373 70.0072 18.3294 70.2559 18.1873C71.9999 17.1907 72.4981 16.4433 72.4981 15.6959C72.4981 15.4811 72.457 15.1633 72.4101 14.8018C72.294 13.9057 72.1431 12.7406 72.4981 12.208C72.5895 12.071 72.6892 11.934 72.7911 11.7939C73.2453 11.1699 73.7438 10.4849 73.7438 9.46753C73.7438 8.65053 73.9581 7.9407 74.2462 6.9866L74.2463 6.98645C74.3974 6.48587 74.5689 5.91805 74.7403 5.23224C75.139 3.63778 74.9064 3.23916 74.7403 3.23916C73.9929 2.74089 72.3985 1.74435 71.9999 1.74435C71.8251 1.74435 71.589 1.62173 71.3238 1.48402C70.8331 1.22915 70.2429 0.922595 69.7576 1.24608C69.0102 1.74435 67.7645 1.74435 66.768 1.74435C65.9707 1.74435 66.1036 1.41217 66.2697 1.24608L66.8791 0.179685ZM141.802 89.725C141.936 84.2099 141.313 76.9396 138.27 73.7443C134.284 69.5589 132.125 68.3464 131.543 68.2634C130.796 67.7651 129.401 67.2668 129.799 69.2599C130.198 71.253 130.796 73.08 131.045 73.7443C131.46 74.2426 132.44 74.8405 133.038 73.2461L136.028 77.9796C136.443 78.2288 136.974 79.1257 135.778 80.7201C134.583 82.3146 130.796 86.2011 129.052 87.945C128.304 88.4433 126.76 88.8917 126.56 86.6994C126.311 83.9589 123.322 75.4883 121.827 72.9969C121.412 72.4987 120.581 71.9506 120.581 73.7443C120.581 75.9866 123.322 86.4502 125.564 88.9416C126.394 89.9381 128.554 91.3333 130.547 88.9416C130.547 90.6025 129.799 94.6218 126.81 97.4122C123.82 100.202 122.907 101.066 122.823 101.149C121.412 103.059 118.289 107.776 117.093 111.364C115.898 114.951 109.121 121.329 105.882 124.07C104.221 125.564 99.8034 128.903 95.4186 130.298C94.4221 130.547 92.6781 130.348 93.6747 127.557C94.6712 124.767 95.0864 118.921 95.1695 116.346C95.2525 115.516 95.7176 113.556 96.9134 112.36C98.4082 110.865 99.4048 108.872 97.6608 106.132C95.9169 103.391 96.166 101.647 97.1626 100.153C97.6608 99.7374 98.3086 98.7575 96.9134 98.1596C95.5183 97.5616 93.3425 96.2495 92.429 95.6682C91.5985 95.4191 89.4892 95.0703 87.6954 95.6682C85.4532 96.4156 78.7266 98.4087 76.4844 95.4191C76.126 94.9413 75.8122 94.5271 75.5358 94.1623L75.5354 94.1618L75.5353 94.1617C74.0828 92.2446 73.6642 91.6921 73.2456 90.4364C72.7473 88.9416 71.9999 83.9589 73.7439 80.2218C75.139 77.2322 74.9896 76.1526 74.7404 75.9866C74.4082 75.6544 74.0927 74.7409 75.4878 73.7443C76.4052 73.0891 77.5983 71.3308 78.7771 69.5937C79.8392 68.0285 80.8896 66.4805 81.7162 65.772C83.1114 64.5762 92.429 62.7824 96.9134 62.035C97.6608 61.8689 99.3051 61.7859 99.9031 62.7824C100.042 63.0143 100.199 63.2807 100.366 63.5655L100.366 63.5658C101.097 64.8112 102.035 66.4095 102.644 67.0177C103.391 67.7651 106.63 69.2599 108.374 67.0177C109.769 65.2239 111.778 65.9381 112.609 66.5194C113.273 66.9347 115.05 67.8648 116.844 68.2634C119.086 68.7616 121.08 67.0177 121.08 64.2772C121.08 62.0848 118.754 61.2045 117.592 61.0385C116.429 61.1215 113.904 60.59 113.107 57.7997C112.609 57.2184 111.612 56.4046 111.612 57.7997V61.5367C111.363 62.1181 110.616 62.9319 109.619 61.5367C108.623 60.1416 107.709 57.6336 107.377 56.554C107.128 55.4745 106.032 53.116 103.64 52.3187C102.81 52.2357 101.448 52.3686 102.644 53.5644C102.808 53.7292 102.979 53.8939 103.151 54.06C104.541 55.4008 106.022 56.8286 105.135 59.0454C104.72 59.8758 103.69 61.0883 102.893 59.2945C101.896 57.0523 100.401 54.8101 98.9065 53.8136C98.3252 53.3153 96.9633 52.6177 96.166 53.8136C95.3688 55.0094 91.8477 58.6302 90.1868 60.2911C89.6055 61.1215 87.6954 62.4336 84.7058 61.0385C81.7162 59.6433 80.4705 58.7963 80.2214 58.5471C79.3909 57.7997 78.3778 55.9063 80.9688 54.3118C83.4196 52.8037 85.4424 52.2941 86.9293 51.9195L86.9294 51.9195C87.4074 51.799 87.83 51.6926 88.1937 51.5713C89.0242 51.2392 90.4359 50.1762 89.4394 48.5817C89.0141 47.9012 88.6759 47.5111 88.4347 47.233C87.9696 46.6965 87.8656 46.5765 88.1937 45.5921C88.692 44.0973 89.4394 42.6025 93.1764 41.6059C96.9134 40.6094 98.4082 40.3603 99.9031 40.3603C101.398 40.3603 103.64 39.3637 103.889 35.8758C104.055 35.2945 104.587 33.9824 105.384 33.3845C105.716 32.8032 106.131 31.6904 105.135 31.8897C105.027 31.9112 104.919 31.9346 104.812 31.958C103.678 32.2045 102.579 32.4432 101.896 30.3949C101.298 28.6011 100.318 26.99 99.9031 26.4087C99.6539 25.4952 99.1058 24.316 98.9065 26.907C98.7072 29.498 98.9896 32.8032 99.1556 34.1319C99.2387 35.2945 98.7072 37.271 95.9169 35.8758C93.1266 34.4807 92.7612 34.7963 92.9273 35.1284C92.6781 35.0454 92.0802 34.5803 91.6816 33.3845C91.283 32.1886 90.8512 31.5575 90.6851 31.3914C90.1037 30.644 89.4394 28.7506 91.4325 27.1561C92.7269 26.1206 93.3488 25.6903 93.7524 25.4111L93.7525 25.411C94.1256 25.1529 94.3122 25.0238 94.6712 24.6648C95.4186 23.9174 95.9169 22.1734 94.9204 19.4329C94.5051 18.3533 94.2228 16.3935 96.4152 17.1907C98.6076 17.9879 100.65 18.1873 101.398 18.1873C102.145 18.4364 103.79 19.0841 104.387 19.6821C105.105 20.4 104.674 20.6582 103.535 21.3399L103.391 21.426C103.474 21.9243 103.79 22.9706 104.387 23.17C104.477 23.1997 104.573 23.2366 104.674 23.2751L104.674 23.2752C105.415 23.5587 106.381 23.9281 106.381 22.1734C106.381 22.0488 106.38 21.9243 106.379 21.8002V21.7987C106.364 19.9381 106.35 18.1873 109.619 18.1873C108.872 17.689 107.427 16.4931 107.626 15.6959C107.875 14.6994 107.875 14.2011 107.128 13.4537C106.954 13.2801 106.767 13.12 106.589 12.9671C105.998 12.4615 105.5 12.0345 105.882 11.4606C106.023 11.2497 106.144 11.1578 106.211 11.1066C106.247 11.0792 106.268 11.0634 106.268 11.0473C106.268 11.0254 106.231 11.0029 106.144 10.9498C105.989 10.8559 105.676 10.6662 105.135 10.2149C104.366 9.57407 102.525 7.73112 100.846 6.01132C126.25 17.1321 144 42.4934 144 72.0004C144 78.1167 143.237 84.0549 141.802 89.725Z" fill="url(#paint1_radial_641_15434)"/>
<defs>
<radialGradient id="paint0_radial_641_15434" cx="0" cy="0" r="1" gradientUnits="userSpaceOnUse" gradientTransform="translate(72 42.6021) rotate(90) scale(101.398)">
<stop stop-color="#F8FDFF"/>
<stop offset="0.35695" stop-color="#B4EDFF"/>
<stop offset="0.742037" stop-color="#4DD4FF"/>
<stop offset="1" stop-color="#BBEFFF"/>
</radialGradient>
<radialGradient id="paint1_radial_641_15434" cx="0" cy="0" r="1" gradientUnits="userSpaceOnUse" gradientTransform="translate(72 41.1076) rotate(90) scale(102.274 102.844)">
<stop stop-color="#53D09C"/>
<stop offset="0.284602" stop-color="#48B386"/>
<stop offset="0.769588" stop-color="#2C8660"/>
<stop offset="1" stop-color="#4AC08F"/>
</radialGradient>
</defs>
</svg>
