<svg width="76" height="152" viewBox="0 0 76 152" fill="none" xmlns="http://www.w3.org/2000/svg">
<rect x="2.68213" y="1.78906" width="69.7412" height="148.424" rx="11" fill="white"/>
<path fill-rule="evenodd" clip-rule="evenodd" d="M11.2363 0C5.03067 0 0 5.05079 0 11.2812V140.719C0 146.949 5.03067 152 11.2363 152H63.8696C70.0752 152 75.1059 146.949 75.1059 140.719V11.2812C75.1059 5.05079 70.0752 0 63.8696 0H11.2363ZM11.532 4.45312C7.61264 4.45312 4.43539 7.6431 4.43539 11.5781V140.422C4.43539 144.357 7.61264 147.547 11.532 147.547H63.5739C67.4932 147.547 70.6705 144.357 70.6705 140.422V11.5781C70.6705 7.6431 67.4932 4.45312 63.5739 4.45312H58.2514C56.945 4.45312 55.8859 5.51645 55.8859 6.82812L55.8754 6.80708C55.7351 8.6457 54.2048 10.0938 52.3376 10.0938H22.7683C20.9035 10.0938 19.3747 8.64947 19.2311 6.81428L19.22 6.82812C19.22 5.51645 18.1609 4.45312 16.8545 4.45312H11.532Z" fill="black"/>
<path d="M30.9193 36H48.3754C49.6954 36 50.5164 37.1804 50.2085 38.6334L45.806 59.3707C45.4953 60.8186 44.1737 62 42.8528 62H25.3976C24.0795 62 23.2567 60.8186 23.5646 59.3707L27.9689 38.6334C28.2768 37.1804 29.5977 36 30.9193 36Z" fill="#E21836"/>
<path d="M41.1453 36H60.0196C61.3393 36 60.7442 37.1804 60.4337 38.6334L56.032 59.3707C55.7231 60.8186 55.8194 62 54.4969 62H35.6227C34.3002 62 33.4817 60.8186 33.7924 59.3707L38.194 38.6334C38.5065 37.1804 39.8246 36 41.1453 36Z" fill="#00447C"/>
<path d="M53.1468 36H62.6029C63.9247 36 64.7457 37.1804 64.4352 38.6334L60.0335 59.3707C59.7228 60.8186 58.4002 62 57.0787 62H47.627C46.3044 62 45.4841 60.8186 45.7939 59.3707L50.1964 38.6334C50.5043 37.1804 51.8243 36 53.1468 36Z" fill="#007B84"/>
<path d="M34.9448 42.646C33.9724 42.6569 33.6852 42.646 33.5935 42.6222C33.5582 42.8061 32.9021 46.127 32.9002 46.1298C32.7589 46.8016 32.6561 47.2806 32.3069 47.5898C32.1087 47.7696 31.8773 47.8564 31.609 47.8564C31.1778 47.8564 30.9266 47.6214 30.8844 47.1759L30.8763 47.0229C30.8763 47.0229 31.0077 46.1229 31.0077 46.1179C31.0077 46.1179 31.6964 43.0915 31.8197 42.6915C31.8262 42.6687 31.828 42.6569 31.8296 42.646C30.4891 42.6589 30.2515 42.646 30.2351 42.6222C30.2261 42.6548 30.1929 42.8425 30.1929 42.8425L29.4897 46.2534L29.4294 46.5427L29.3125 47.4889C29.3125 47.7696 29.3627 47.9987 29.4628 48.1924C29.7831 48.8066 30.697 48.8987 31.214 48.8987C31.8801 48.8987 32.5049 48.7434 32.9272 48.46C33.6601 47.9848 33.8519 47.2421 34.0229 46.5822L34.1022 46.2436C34.1022 46.2436 34.8116 43.1004 34.9322 42.6915C34.9368 42.6687 34.9386 42.6569 34.9448 42.646ZM37.3586 45.1816C37.1876 45.1816 36.8751 45.2271 36.5943 45.3781C36.4925 45.4355 36.3961 45.5017 36.2945 45.5677L36.3862 45.2044L36.336 45.1432C35.7406 45.2754 35.6074 45.2931 35.0575 45.3781L35.0114 45.4117C34.9475 45.9926 34.8908 46.4293 34.6541 47.571C34.564 47.9917 34.4704 48.4166 34.3766 48.8363L34.402 48.8897C34.9655 48.8571 35.1365 48.8571 35.6263 48.8659L35.666 48.8186C35.7282 48.4689 35.7363 48.387 35.8741 47.6787C35.9388 47.3429 36.0739 46.605 36.1405 46.3423C36.2629 46.2801 36.3837 46.2189 36.4989 46.2189C36.7734 46.2189 36.74 46.4816 36.7294 46.5863C36.7177 46.762 36.6176 47.3361 36.5151 47.8289L36.4466 48.147C36.3989 48.3819 36.3466 48.6103 36.2989 48.8432L36.3196 48.8897C36.8751 48.8571 37.0445 48.8571 37.5188 48.8659L37.5746 48.8186C37.6603 48.2724 37.6855 48.1263 37.8376 47.331L37.9141 46.9656C38.0628 46.2505 38.1374 45.8879 38.025 45.5925C37.906 45.2615 37.6207 45.1816 37.3586 45.1816ZM40.0551 45.9303C39.7599 45.9925 39.5716 46.034 39.3844 46.0608C39.1989 46.0934 39.0179 46.123 38.7326 46.1665L38.71 46.189L38.6893 46.207C38.6595 46.4401 38.6388 46.6417 38.5994 46.8786C38.566 47.1236 38.5146 47.402 38.4309 47.8021C38.3661 48.1083 38.3327 48.215 38.2958 48.3227C38.2599 48.4304 38.2202 48.5351 38.1474 48.8363L38.1645 48.8641L38.1787 48.8897C38.4454 48.8758 38.6199 48.8659 38.7992 48.8641C38.9783 48.857 39.1638 48.8641 39.451 48.8659L39.4761 48.8434L39.5031 48.8186C39.5446 48.547 39.5508 48.4739 39.5762 48.3414C39.6013 48.1993 39.6446 48.0026 39.7509 47.4771C39.8011 47.2303 39.8571 46.9843 39.9092 46.7324C39.9634 46.4816 40.0201 46.2345 40.074 45.9877L40.0659 45.9579L40.0551 45.9303ZM40.0614 44.9208C39.7931 44.7471 39.3222 44.8022 39.0053 45.0422C38.6893 45.2774 38.6534 45.6112 38.9207 45.7872C39.1844 45.9561 39.6571 45.9058 39.9713 45.6638C40.2866 45.4235 40.326 45.0928 40.0614 44.9208ZM41.6839 48.9441C42.2267 48.9441 42.7831 48.78 43.2019 48.293C43.5241 47.898 43.6718 47.3103 43.723 47.0683C43.8896 46.2662 43.7599 45.8917 43.5969 45.6636C43.3494 45.3159 42.9119 45.2044 42.4581 45.2044C42.1852 45.2044 41.5352 45.234 41.0275 45.7476C40.6629 46.118 40.4944 46.6207 40.3927 47.1027C40.2902 47.5938 40.1722 48.4778 40.9132 48.8068C41.1418 48.9145 41.4714 48.9441 41.6839 48.9441ZM41.6415 47.1394C41.7666 46.532 41.9144 46.0222 42.2915 46.0222C42.5869 46.0222 42.6084 46.4015 42.477 47.0109C42.4535 47.1462 42.3456 47.6492 42.1997 47.8633C42.0978 48.0214 41.9773 48.1172 41.8441 48.1172C41.8044 48.1172 41.5687 48.1172 41.565 47.7331C41.5631 47.5435 41.5984 47.3498 41.6415 47.1394ZM45.0799 48.866L45.1223 48.8187C45.1824 48.469 45.1923 48.3868 45.3255 47.6788C45.3922 47.343 45.53 46.6051 45.5948 46.3424C45.7174 46.2799 45.8361 46.2187 45.955 46.2187C46.2277 46.2187 46.1945 46.4814 46.1836 46.5861C46.1737 46.7621 46.0737 47.3359 45.9693 47.8287L45.9045 48.1468C45.855 48.382 45.801 48.6101 45.7533 48.8432L45.7741 48.8898C46.3314 48.8571 46.4943 48.8571 46.9714 48.866L47.0291 48.8187C47.1127 48.2723 47.1353 48.1261 47.292 47.3311L47.3667 46.9654C47.5161 46.2503 47.5917 45.8879 47.481 45.5926C47.3586 45.2616 47.0715 45.1817 46.8131 45.1817C46.6418 45.1817 46.3277 45.2269 46.0486 45.3782C45.9488 45.4356 45.8487 45.5016 45.7506 45.5678L45.8361 45.2044L45.7902 45.143C45.1951 45.2755 45.0591 45.2932 44.5099 45.3782L44.4677 45.4118C44.4011 45.9926 44.3469 46.4291 44.1102 47.571C44.0201 47.9918 43.9265 48.4166 43.8329 48.8364L43.8581 48.8898C44.4225 48.8571 44.591 48.8571 45.0799 48.866ZM49.1745 48.8896C49.2095 48.702 49.4177 47.5899 49.4195 47.5899C49.4195 47.5899 49.5968 46.7739 49.6076 46.7443C49.6076 46.7443 49.6634 46.6593 49.7192 46.6257H49.8012C50.5754 46.6257 51.4496 46.6257 52.1349 46.0727C52.6011 45.6934 52.9199 45.1333 53.0621 44.4525C53.099 44.2856 53.1262 44.0871 53.1262 43.8886C53.1262 43.6279 53.0785 43.37 52.9406 43.1685C52.5912 42.6321 51.8954 42.6223 51.0921 42.6182C51.0896 42.6182 50.6962 42.6223 50.6962 42.6223C49.668 42.6362 49.2556 42.6321 49.0862 42.6094C49.072 42.6916 49.045 42.8377 49.045 42.8377C49.045 42.8377 48.6767 44.7105 48.6767 44.7135C48.6767 44.7135 47.7953 48.6952 47.7538 48.8828C48.6515 48.8709 49.0196 48.8709 49.1745 48.8896ZM49.857 45.5629C49.857 45.5629 50.2486 43.6939 50.2467 43.701L50.2594 43.6052L50.2649 43.5321L50.4214 43.5498C50.4214 43.5498 51.2291 43.6259 51.248 43.6279C51.5667 43.7632 51.6981 44.1119 51.6064 44.5671C51.5227 44.9831 51.2768 45.3328 50.9608 45.5017C50.7006 45.6448 50.3818 45.6567 50.0534 45.6567H49.8408L49.857 45.5629ZM52.2951 47.174C52.1916 47.658 52.0727 48.542 52.81 48.8571C53.0451 48.9668 53.2558 48.9995 53.4699 48.9876C53.696 48.9742 53.9055 48.8498 54.0996 48.6707C54.0821 48.7443 54.0646 48.8179 54.047 48.8917L54.0805 48.939C54.6108 48.9145 54.7754 48.9145 55.35 48.9193L55.4021 48.8758C55.486 48.3347 55.565 47.8092 55.783 46.774C55.8893 46.2781 55.9953 45.787 56.1043 45.2932L56.0873 45.2388C55.494 45.3594 55.3354 45.3852 54.7648 45.474L54.7214 45.5126C54.7157 45.563 54.7097 45.6113 54.7042 45.6596C54.6154 45.5023 54.4868 45.368 54.2884 45.2843C54.0346 45.1748 53.4386 45.3159 52.9262 45.8277C52.5662 46.1931 52.3933 46.6938 52.2951 47.174ZM53.5411 47.2036C53.6681 46.6071 53.814 46.1023 54.192 46.1023C54.431 46.1023 54.5569 46.3443 54.5313 46.757C54.511 46.8599 54.4891 46.9684 54.4631 47.0911C54.4253 47.2683 54.3842 47.4441 54.3444 47.6201C54.3038 47.7404 54.2566 47.854 54.2047 47.9296C54.1074 48.0808 53.876 48.1746 53.7428 48.1746C53.705 48.1746 53.4718 48.1746 53.4637 47.7973C53.4618 47.6094 53.4971 47.416 53.5411 47.2036ZM60.0478 45.234L60.0019 45.1766C59.4149 45.307 59.3086 45.3278 58.7693 45.4077L58.7297 45.4512C58.7278 45.4582 58.7262 45.4691 58.7235 45.479L58.7216 45.4691C58.3201 46.4854 58.3319 46.2662 58.005 47.0662C58.0032 47.0298 58.0032 47.0071 58.0013 46.9684L57.9195 45.234L57.8681 45.1766C57.2532 45.307 57.2387 45.3278 56.6708 45.4077L56.6265 45.4512C56.6203 45.4719 56.6203 45.4947 56.6166 45.5194L56.6203 45.5283C56.6913 45.9263 56.6742 45.8376 56.7454 46.4657C56.7786 46.7739 56.8229 47.0839 56.8561 47.3884C56.9121 47.8979 56.9434 48.1488 57.0119 48.9264C56.6283 49.6207 56.5375 49.8835 56.1683 50.4929L56.1708 50.4989L55.9109 50.9501C55.8811 50.9976 55.8542 51.0302 55.8164 51.0441C55.7749 51.0666 55.7209 51.0707 55.646 51.0707H55.502L55.2879 51.852L56.0224 51.866C56.4536 51.8639 56.7247 51.6427 56.8706 51.3453L57.3325 50.4769H57.3251L57.3737 50.4157C57.6844 49.6819 60.0478 45.234 60.0478 45.234ZM52.2951 55.496H51.9835L53.1368 51.3108H53.5194L53.6409 50.8796L53.6527 51.3591C53.6384 51.6554 53.8509 51.9182 54.4091 51.8747H55.0547L55.2769 51.0688H55.034C54.8943 51.0688 54.8295 51.0301 54.8376 50.9472L54.8258 50.4594H53.6303V50.4619C53.2438 50.4707 52.0895 50.5026 51.8558 50.5709C51.573 50.6508 51.275 50.886 51.275 50.886L51.3921 50.4543H50.2738L50.0407 51.3108L48.872 55.56H48.6452L48.4227 56.3601H50.6501L50.5755 56.6268H51.673L51.7459 56.3601H52.0538L52.2951 55.496ZM51.3812 52.1612C51.2022 52.2155 50.8689 52.3804 50.8689 52.3804L51.1653 51.3108H52.0538L51.8394 52.0901C51.8394 52.0901 51.5649 52.1078 51.3812 52.1612ZM51.3983 53.6893C51.3983 53.6893 51.1192 53.7277 50.9355 53.7732C50.7546 53.8334 50.4153 54.0231 50.4153 54.0231L50.7214 52.9099H51.6145L51.3983 53.6893ZM50.9005 55.5059H50.0092L50.2675 54.5665H51.1561L50.9005 55.5059ZM53.0469 52.9099H54.3316L54.147 53.5659H52.8452L52.6497 54.283H53.7888L52.9263 55.6154C52.8659 55.7132 52.8118 55.7479 52.7516 55.7754C52.6912 55.8091 52.6119 55.8485 52.5202 55.8485H52.2042L51.9871 56.6339H52.8136C53.2432 56.6339 53.497 56.4195 53.6844 56.1381L54.2758 55.25L54.4028 56.1517C54.4298 56.3206 54.5404 56.4195 54.6153 56.4579C54.698 56.5034 54.7836 56.5816 54.9043 56.5932C55.0339 56.5993 55.1274 56.6041 55.1897 56.6041H55.5958L55.8396 55.7251H55.6794C55.5875 55.7251 55.4291 55.7082 55.4022 55.6766C55.3752 55.6381 55.3752 55.579 55.3607 55.4889L55.2318 54.5852H54.7043L54.9357 54.283H56.2349L56.4347 53.5659H55.2318L55.4192 52.9099H56.6184L56.8409 52.101H53.2656L53.0469 52.9099ZM42.1961 55.6885L42.4959 54.5941H43.7283L43.9535 53.7801H42.72L42.9083 53.1065H44.1137L44.337 52.3183H41.3209L41.1022 53.1065H41.7874L41.6047 53.7801H40.9176L40.6899 54.608H41.3749L40.9752 56.0559C40.9213 56.2476 41.0006 56.3207 41.0508 56.4097C41.1022 56.4964 41.1543 56.5538 41.2714 56.5865C41.3922 56.6161 41.4749 56.6338 41.5874 56.6338H42.9767L43.2243 55.732L42.6084 55.8248C42.4895 55.8248 42.1601 55.8091 42.1961 55.6885ZM42.3374 50.4494L42.0251 51.0687C41.9583 51.2039 41.8981 51.2879 41.844 51.3266C41.7963 51.3592 41.7018 51.3729 41.5649 51.3729H41.4019L41.1841 52.1651H41.7253C41.9855 52.1651 42.1853 52.0604 42.2807 52.0081C42.3833 51.9479 42.4103 51.9823 42.4896 51.8983L42.6723 51.7246H44.3622L44.5865 50.8997H43.3495L43.5655 50.4494H42.3374ZM44.8323 55.7044C44.8035 55.6589 44.8242 55.5788 44.8682 55.4119L45.3301 53.7346H46.9733C47.2127 53.7308 47.3856 53.7278 47.4981 53.7189C47.6188 53.705 47.7502 53.6577 47.8933 53.5727C48.0411 53.4837 48.1167 53.3899 48.1805 53.2822C48.2518 53.1747 48.3661 52.9396 48.4643 52.5769L49.0448 50.4544L47.3397 50.4652C47.3397 50.4652 46.8147 50.5502 46.5835 50.644C46.3503 50.7487 46.017 51.041 46.017 51.041L46.1709 50.4592H45.1176L43.643 55.8248C43.5907 56.0332 43.5556 56.1844 43.5476 56.2752C43.5448 56.373 43.66 56.4699 43.7347 56.5429C43.823 56.616 43.9535 56.6041 44.0786 56.616C44.2102 56.6269 44.3974 56.6337 44.6557 56.6337H45.4652L45.7137 55.7133L44.989 55.7884C44.9116 55.7884 44.8556 55.7429 44.8323 55.7044ZM45.6282 52.6017H47.354L47.2443 52.979C47.2289 52.9879 47.192 52.9603 47.0164 52.9831H45.5219L45.6282 52.6017ZM45.9739 51.3364H47.7143L47.5891 51.7908C47.5891 51.7908 46.7688 51.7819 46.6374 51.8085C46.0594 51.9182 45.7217 52.2571 45.7217 52.2571L45.9739 51.3364ZM47.2829 54.2424C47.2686 54.2988 47.2461 54.3332 47.2145 54.359C47.1794 54.3838 47.1227 54.3926 47.0382 54.3926H46.7922L46.8068 53.9332H45.7839L45.7424 56.1794C45.7408 56.3415 45.7551 56.4353 45.8632 56.5104C45.9712 56.6042 46.3043 56.6161 46.7526 56.6161H47.3936L47.625 55.7753L47.067 55.8089L46.8814 55.8208C46.8561 55.8089 46.8319 55.7981 46.8049 55.7685C46.7814 55.7429 46.7418 55.7586 46.7482 55.5965L46.7526 55.0207L47.3378 54.9942C47.6538 54.9942 47.7888 54.8814 47.9041 54.7739C48.014 54.671 48.05 54.5527 48.0915 54.3926L48.1897 53.8828H47.3855L47.2829 54.2424Z" fill="#FEFEFE"/>
<path d="M24 43H11" stroke="#E21836" stroke-width="2" stroke-linecap="round" stroke-linejoin="round"/>
<path d="M23 49H14" stroke="#00447C" stroke-width="2" stroke-linecap="round" stroke-linejoin="round"/>
<path d="M21.5 55H17" stroke="#007B84" stroke-width="2" stroke-linecap="round" stroke-linejoin="round"/>
<path fill-rule="evenodd" clip-rule="evenodd" d="M17 108.991L55.3592 93L46.9767 123.204L35.6394 116.791L30.8039 122.567L28.1615 112.863L17 108.991Z" fill="url(#paint0_linear_1201_2073)"/>
<path fill-rule="evenodd" clip-rule="evenodd" d="M35.6393 116.79L31.0315 114.184L30.8037 122.566L35.6393 116.79Z" fill="url(#paint1_linear_1201_2073)"/>
<path fill-rule="evenodd" clip-rule="evenodd" d="M30.804 122.567L31.0317 114.184L55.3593 93L28.1616 112.863L30.804 122.567Z" fill="#1B6646"/>
<defs>
<linearGradient id="paint0_linear_1201_2073" x1="54.1405" y1="93" x2="37.8736" y2="117.904" gradientUnits="userSpaceOnUse">
<stop stop-color="#267D59"/>
<stop offset="1" stop-color="#45B988"/>
</linearGradient>
<linearGradient id="paint1_linear_1201_2073" x1="33.2215" y1="114.184" x2="33.1229" y2="122.654" gradientUnits="userSpaceOnUse">
<stop stop-color="#2F8762"/>
<stop offset="1" stop-color="#4ED19B"/>
</linearGradient>
</defs>
</svg>
