<svg width="76" height="152" viewBox="0 0 76 152" fill="none" xmlns="http://www.w3.org/2000/svg">
<rect x="2.68237" y="1.78906" width="69.7412" height="148.424" rx="11" fill="white"/>
<path fill-rule="evenodd" clip-rule="evenodd" d="M11.2363 0C5.03067 0 0 5.05079 0 11.2812V140.719C0 146.949 5.03067 152 11.2363 152H63.8696C70.0752 152 75.1059 146.949 75.1059 140.719V11.2812C75.1059 5.05079 70.0752 0 63.8696 0H11.2363ZM11.532 4.45312C7.61264 4.45312 4.43539 7.6431 4.43539 11.5781V140.422C4.43539 144.357 7.61264 147.547 11.532 147.547H63.5739C67.4932 147.547 70.6705 144.357 70.6705 140.422V11.5781C70.6705 7.6431 67.4932 4.45312 63.5739 4.45312H58.2514C56.945 4.45312 55.8859 5.51645 55.8859 6.82812L55.8754 6.80708C55.7351 8.6457 54.2048 10.0938 52.3376 10.0938H22.7683C20.9035 10.0938 19.3747 8.64947 19.2311 6.81428L19.22 6.82812C19.22 5.51645 18.1609 4.45312 16.8545 4.45312H11.532Z" fill="black"/>
<path fill-rule="evenodd" clip-rule="evenodd" d="M18.3733 108.786L56.7325 92.7949L48.35 122.999L37.0127 116.586L32.1772 122.362L29.5348 112.658L18.3733 108.786Z" fill="url(#paint0_linear_641_15439)"/>
<path fill-rule="evenodd" clip-rule="evenodd" d="M37.0128 116.585L32.405 113.979L32.1772 122.361L37.0128 116.585Z" fill="url(#paint1_linear_641_15439)"/>
<path fill-rule="evenodd" clip-rule="evenodd" d="M32.1772 122.362L32.405 113.979L56.7326 92.7949L29.5349 112.658L32.1772 122.362Z" fill="#1B6646"/>
<path d="M33.9151 59.7663L37.2255 45.2886H33.2427L29.8806 59.7663H33.9151Z" fill="#3D9A73"/>
<path fill-rule="evenodd" clip-rule="evenodd" d="M62.4152 59.7663H58.6911L58.2256 57.6018H53.0531L52.2255 59.7663H47.9841L53.9842 46.3468C54.2428 45.7215 54.9152 45.2886 55.6911 45.2886H59.1566L62.4152 59.7663ZM56.3118 49.1846L54.1911 54.6197H57.5531L56.3118 49.1846Z" fill="#3D9A73"/>
<path d="M44.5268 50.9341C46.1524 51.7308 48.191 52.73 48.191 55.0045C48.191 58.0347 45.3979 59.9587 41.1048 59.9587C39.2945 59.9587 37.5358 59.5739 36.6048 59.1891L37.3289 56.0146C37.4026 56.0451 37.478 56.0767 37.5552 56.1092C38.4535 56.4868 39.6093 56.9728 41.4669 56.9285C42.6565 56.9285 43.8979 56.4956 43.8979 55.5336C43.9496 54.9083 43.3807 54.4754 41.829 53.754C40.3289 53.0806 38.3117 51.8781 38.3117 49.8099C38.3634 46.972 41.1565 45 45.1393 45C46.691 45 47.9324 45.3367 48.9669 45.6253L48.2428 48.7036C46.4324 47.934 44.829 48.0302 44.26 48.0783C43.1221 48.2226 42.5531 48.7517 42.5531 49.2808C42.5323 49.9565 43.4367 50.3998 44.5268 50.9341Z" fill="#3D9A73"/>
<path d="M24.9668 59.7663L31.4841 45.2886V45.2405H27.2427L23.053 55.1007L21.3978 46.7316C21.1909 45.7696 20.4151 45.2405 19.5358 45.2405H12.6564L12.553 45.6734C13.9495 45.962 15.553 46.443 16.5358 46.9239C17.1047 47.2125 17.3116 47.5011 17.5185 48.2226L20.7254 59.7663H24.9668Z" fill="#3D9A73"/>
<path fill-rule="evenodd" clip-rule="evenodd" d="M29.4515 63.1138L28.2826 69.8677H30.5509C31.1323 69.8615 31.6735 69.7192 32.1744 69.4409C32.6754 69.1595 33.0852 68.7729 33.4037 68.2812C33.7222 67.7896 33.9232 67.2406 34.0067 66.6345L34.0392 66.3516C34.101 65.8104 34.0531 65.3063 33.8954 64.8394C33.7129 64.3075 33.4037 63.8884 32.9676 63.5823C32.5316 63.273 32.0214 63.1184 31.4369 63.1184L29.4515 63.1138ZM30.087 68.6152L30.8246 64.3708L31.4322 64.3755C31.7848 64.3879 32.0492 64.5224 32.2255 64.7791C32.4017 65.0357 32.479 65.4115 32.4574 65.9062L32.4481 66.0593C32.3863 66.9252 32.1899 67.5684 31.859 67.989C31.5312 68.4096 31.0952 68.6199 30.5509 68.6199L30.087 68.6152Z" fill="#3D9A73"/>
<path d="M34.8667 69.8677H36.4531L37.6221 63.1138H36.0403L34.8667 69.8677Z" fill="#3D9A73"/>
<path fill-rule="evenodd" clip-rule="evenodd" d="M40.0685 67.4834H40.9499L41.6921 69.8677H43.3852V69.7888L42.476 67.0891C42.9213 66.9036 43.2677 66.6515 43.5151 66.333C43.7624 66.0114 43.9032 65.6063 43.9372 65.1177C43.9805 64.4992 43.7949 64.0121 43.3805 63.6565C42.9692 63.2978 42.3817 63.1184 41.6178 63.1184L39.2336 63.1138L38.0646 69.8677H39.651L40.0685 67.4834ZM41.2096 66.2356L40.2819 66.2263L40.6066 64.3708L41.6828 64.3755C42.0601 64.394 42.2796 64.575 42.3415 64.9182C42.3755 65.1192 42.3523 65.328 42.2719 65.5444C42.1915 65.7578 42.057 65.9264 41.8683 66.05C41.6828 66.1737 41.4632 66.2356 41.2096 66.2356Z" fill="#3D9A73"/>
<path d="M46.6851 67.0056H49.1668L49.3755 65.7949H46.8892L47.1397 64.3708H50.0806L50.2986 63.1138H45.7667L44.5977 69.8677H49.1204L49.3384 68.6152H46.4022L46.6851 67.0056Z" fill="#3D9A73"/>
<path d="M55.468 68.8286C55.7401 68.4606 55.8963 68.04 55.9365 67.5669L54.3872 67.5854C54.3253 67.9442 54.1831 68.2225 53.9604 68.4204C53.7378 68.6152 53.4393 68.7065 53.0651 68.6941C52.4869 68.6724 52.2054 68.2812 52.2209 67.5205C52.2209 67.2638 52.2627 66.8355 52.3462 66.2356C52.5286 64.9089 53.0373 64.2595 53.8723 64.2874C54.2063 64.2997 54.4506 64.394 54.6052 64.5703C54.7598 64.7466 54.834 65.0404 54.8278 65.4517L56.4096 65.4563C56.3725 64.7017 56.139 64.1095 55.7092 63.6797C55.2824 63.2498 54.7011 63.0287 53.965 63.0164C53.4641 63.0071 53.0018 63.1122 52.5781 63.3318C52.1575 63.5483 51.7911 63.8761 51.4787 64.3152C51.1695 64.7512 50.9453 65.2646 50.8061 65.8552C50.67 66.4459 50.6159 66.9917 50.6438 67.4927C50.6809 68.2441 50.902 68.8394 51.3071 69.2786C51.7122 69.7177 52.2673 69.945 52.9724 69.9604C53.4857 69.9697 53.962 69.8754 54.4011 69.6775C54.8433 69.4796 55.1989 69.1966 55.468 68.8286Z" fill="#3D9A73"/>
<path d="M60.8461 64.3708H62.8129L63.0309 63.1138H57.548L57.3253 64.3708H59.2596L58.3041 69.8677H59.8951L60.8461 64.3708Z" fill="#3D9A73"/>
<defs>
<linearGradient id="paint0_linear_641_15439" x1="55.5138" y1="92.7949" x2="39.2469" y2="117.699" gradientUnits="userSpaceOnUse">
<stop stop-color="#267D59"/>
<stop offset="1" stop-color="#45B988"/>
</linearGradient>
<linearGradient id="paint1_linear_641_15439" x1="34.595" y1="113.979" x2="34.4964" y2="122.449" gradientUnits="userSpaceOnUse">
<stop stop-color="#2F8762"/>
<stop offset="1" stop-color="#4ED19B"/>
</linearGradient>
</defs>
</svg>
